<svg width="24" height="24" viewBox="0 0 24 24" fill="none" xmlns="http://www.w3.org/2000/svg">
<path d="M18.5661 10.6257C18.0108 9.08903 16.9288 7.79317 15.5177 6.96872C15.5565 6.89587 15.5946 6.82191 15.6318 6.74674C15.8132 6.38196 15.9091 5.97 15.9091 5.55537C15.9091 4.14637 14.828 3 13.4992 3C12.9507 3 12.4219 3.20081 11.9998 3.55557C11.5776 3.20081 11.0488 3 10.5004 3C9.17152 3 8.0905 4.14637 8.0905 5.5554C8.0905 5.97011 8.18641 6.38207 8.36729 6.74576C8.40466 6.82131 8.44295 6.89566 8.482 6.96889C7.07108 7.79334 5.98907 9.08917 5.43382 10.6258C4.18292 10.6925 3.18571 11.7312 3.18571 12.9985C3.18571 14.1701 4.03825 15.1456 5.15541 15.339L6.85849 20.6241C6.93066 20.8482 7.13914 21 7.37451 21H16.6255C16.8608 21 17.0693 20.8482 17.1415 20.6241L18.8446 15.339C19.9616 15.1456 20.8142 14.1701 20.8142 12.9985C20.8141 11.7312 19.8169 10.6925 18.5661 10.6257ZM10.5004 4.08432C10.9159 4.08432 11.2998 4.29519 11.5536 4.66293C11.6548 4.80956 11.8216 4.8971 11.9998 4.8971C12.178 4.8971 12.3448 4.80953 12.446 4.66293C12.6997 4.29519 13.0836 4.08432 13.4992 4.08432C14.2301 4.08432 14.8248 4.74424 14.8248 5.55537C14.8248 5.80332 14.7681 6.04833 14.6604 6.26486C13.8609 7.88074 12.5594 8.90906 11.9989 9.29884C11.4393 8.91128 10.1425 7.88872 9.33862 6.26384C9.23146 6.04833 9.17479 5.80336 9.17479 5.55533C9.17483 4.74428 9.76943 4.08432 10.5004 4.08432ZM7.76942 19.9157L6.30608 15.3745H8.91063L9.50463 19.9157H7.76942ZM13.4017 19.9157H10.5982L10.0042 15.3745H13.9957L13.4017 19.9157ZM16.2305 19.9157H14.4952L15.0892 15.3745H17.6938L16.2305 19.9157ZM18.4381 14.2901H14.6134H9.38647H5.56179C4.84952 14.2901 4.27007 13.7107 4.27007 12.9984C4.27007 12.2862 4.84955 11.7067 5.56179 11.7067C5.62145 11.7067 5.68329 11.7112 5.74562 11.72C6.012 11.7576 6.26614 11.5942 6.34194 11.3358C6.76905 9.87962 7.74545 8.64613 9.05322 7.89041C10.2195 9.53242 11.6564 10.3731 11.7293 10.4151C11.813 10.4632 11.9064 10.4873 11.9997 10.4873C12.0931 10.4873 12.1865 10.4632 12.2702 10.4151C12.3431 10.373 13.7804 9.53221 14.9465 7.89031C16.2543 8.64599 17.2308 9.87955 17.6579 11.3357C17.7338 11.5941 17.9877 11.7578 18.2542 11.7199C18.3166 11.7111 18.3785 11.7067 18.4381 11.7067C19.1504 11.7067 19.7298 12.2861 19.7298 12.9984C19.7298 13.7107 19.1504 14.2901 18.4381 14.2901Z" fill="#E26776"/>
</svg>
