<svg width="24" height="24" viewBox="0 0 24 24" fill="none" xmlns="http://www.w3.org/2000/svg">
<path d="M18.566 10.6257C18.0107 9.08903 16.9287 7.79317 15.5176 6.96872C15.5565 6.89587 15.5946 6.82191 15.6318 6.74674C15.8132 6.38196 15.9091 5.97 15.9091 5.55537C15.909 4.14637 14.828 3 13.4991 3C12.9506 3 12.4218 3.20081 11.9997 3.55557C11.5776 3.20081 11.0488 3 10.5003 3C9.17148 3 8.09046 4.14637 8.09046 5.5554C8.09046 5.97011 8.18636 6.38207 8.36724 6.74576C8.40461 6.82131 8.4429 6.89566 8.48196 6.96889C7.07103 7.79334 5.98903 9.08917 5.43377 10.6258C4.18288 10.6925 3.18567 11.7312 3.18567 12.9985C3.18567 14.1701 4.03821 15.1456 5.15537 15.339L6.85844 20.6241C6.93062 20.8482 7.13909 21 7.37447 21H16.6254C16.8608 21 17.0693 20.8482 17.1414 20.6241L18.8445 15.339C19.9616 15.1456 20.8141 14.1701 20.8141 12.9985C20.8141 11.7312 19.8169 10.6925 18.566 10.6257ZM10.5003 4.08432C10.9159 4.08432 11.2998 4.29519 11.5535 4.66293C11.6547 4.80956 11.8215 4.8971 11.9997 4.8971C12.1779 4.8971 12.3447 4.80953 12.446 4.66293C12.6997 4.29519 13.0836 4.08432 13.4991 4.08432C14.23 4.08432 14.8247 4.74424 14.8247 5.55537C14.8247 5.80332 14.7681 6.04833 14.6604 6.26486C13.8609 7.88074 12.5593 8.90906 11.9989 9.29884C11.4393 8.91128 10.1425 7.88872 9.33858 6.26384C9.23142 6.04833 9.17475 5.80336 9.17475 5.55533C9.17478 4.74428 9.76938 4.08432 10.5003 4.08432ZM7.76938 19.9157L6.30603 15.3745H8.91058L9.50458 19.9157H7.76938ZM13.4016 19.9157H10.5982L10.0042 15.3745H13.9957L13.4016 19.9157ZM16.2304 19.9157H14.4952L15.0892 15.3745H17.6937L16.2304 19.9157ZM18.4381 14.2901H14.6134H9.38642H5.56174C4.84947 14.2901 4.27003 13.7107 4.27003 12.9984C4.27003 12.2862 4.84951 11.7067 5.56174 11.7067C5.6214 11.7067 5.68324 11.7112 5.74557 11.72C6.01195 11.7576 6.26609 11.5942 6.34189 11.3358C6.769 9.87962 7.7454 8.64613 9.05318 7.89041C10.2194 9.53242 11.6564 10.3731 11.7292 10.4151C11.8129 10.4632 11.9063 10.4873 11.9997 10.4873C12.0931 10.4873 12.1864 10.4632 12.2701 10.4151C12.3431 10.373 13.7804 9.53221 14.9465 7.89031C16.2543 8.64599 17.2307 9.87955 17.6579 11.3357C17.7337 11.5941 17.9876 11.7578 18.2542 11.7199C18.3165 11.7111 18.3784 11.7067 18.4381 11.7067C19.1503 11.7067 19.7298 12.2861 19.7298 12.9984C19.7297 13.7107 19.1503 14.2901 18.4381 14.2901Z" fill="#E26776"/>
</svg>
