<svg width="120" height="20" viewBox="0 0 120 20" fill="none" xmlns="http://www.w3.org/2000/svg">
<path fill-rule="evenodd" clip-rule="evenodd" d="M10 15L4.12215 18.0902L5.24472 11.5451L0.489435 6.90983L7.06107 5.95492L10 0L12.9389 5.95492L19.5106 6.90983L14.7553 11.5451L15.8779 18.0902L10 15Z" fill="#FFB22A"/>
<path fill-rule="evenodd" clip-rule="evenodd" d="M85 15L79.1221 18.0902L80.2447 11.5451L75.4894 6.90983L82.0611 5.95492L85 0L87.9389 5.95492L94.5106 6.90983L89.7553 11.5451L90.8779 18.0902L85 15Z" fill="#FFB22A"/>
<path fill-rule="evenodd" clip-rule="evenodd" d="M60 15L54.1221 18.0902L55.2447 11.5451L50.4894 6.90983L57.0611 5.95492L60 0L62.9389 5.95492L69.5106 6.90983L64.7553 11.5451L65.8779 18.0902L60 15Z" fill="#FFB22A"/>
<path fill-rule="evenodd" clip-rule="evenodd" d="M60 15L54.1221 18.0902L55.2447 11.5451L50.4894 6.90983L57.0611 5.95492L60 0L62.9389 5.95492L69.5106 6.90983L64.7553 11.5451L65.8779 18.0902L60 15Z" fill="#FFB22A"/>
<path fill-rule="evenodd" clip-rule="evenodd" d="M60 15L54.1221 18.0902L55.2447 11.5451L50.4894 6.90983L57.0611 5.95492L60 0L62.9389 5.95492L69.5106 6.90983L64.7553 11.5451L65.8779 18.0902L60 15Z" fill="#FFB22A"/>
<path fill-rule="evenodd" clip-rule="evenodd" d="M110 15L104.122 18.0902L105.245 11.5451L100.489 6.90983L107.061 5.95492L110 0L112.939 5.95492L119.511 6.90983L114.755 11.5451L115.878 18.0902L110 15Z" fill="#FFB22A"/>
<path fill-rule="evenodd" clip-rule="evenodd" d="M35 15L29.1221 18.0902L30.2447 11.5451L25.4894 6.90983L32.0611 5.95492L35 0L37.9389 5.95492L44.5106 6.90983L39.7553 11.5451L40.8779 18.0902L35 15Z" fill="#FFB22A"/>
</svg>
